<svg width="32" height="32" viewBox="0 0 32 32" fill="none" xmlns="http://www.w3.org/2000/svg">
  <path d="M16 4C10.477 4 6 8.477 6 14C6 17.991 8.157 21.431 11.343 23.343C12 24 13 24.5 14 24.8C14.483 24.935 15.235 25 16 25C16.765 25 17.517 24.935 18 24.8C19 24.5 20 24 20.657 23.343C23.843 21.431 26 17.991 26 14C26 8.477 21.523 4 16 4ZM16 6C20.418 6 24 9.582 24 14C24 17.236 22.162 20.086 19.445 21.644C18.888 22.2 17.888 22.7 16.888 23C16.405 23.135 15.653 23.2 14.888 23.2C14.123 23.2 13.371 23.135 12.888 23C11.888 22.7 10.888 22.2 10.331 21.644C7.614 20.086 5.776 17.236 5.776 14C5.776 9.582 9.358 6 13.776 6H16Z" fill="#1890ff"/>
  <path d="M16 10C14.343 10 13 11.343 13 13V15C13 16.657 14.343 18 16 18C17.657 18 19 16.657 19 15V13C19 11.343 17.657 10 16 10ZM16 12C16.552 12 17 12.448 17 13V15C17 15.552 16.552 16 16 16C15.448 16 15 15.552 15 15V13C15 12.448 15.448 12 16 12Z" fill="#1890ff"/>
</svg>